<?xml version="1.0" standalone="no"?>
<!DOCTYPE svg PUBLIC "-//W3C//DTD SVG 20010904//EN"
 "http://www.w3.org/TR/2001/REC-SVG-20010904/DTD/svg10.dtd">
<svg version="1.0" xmlns="http://www.w3.org/2000/svg"
 width="720.000000pt" height="720.000000pt" viewBox="0 0 720.000000 720.000000"
 preserveAspectRatio="xMidYMid meet">

<g transform="translate(0.000000,720.000000) scale(0.100000,-0.100000)"
fill="#000000" stroke="none">
<path d="M0 3600 l0 -3600 3600 0 3600 0 0 1068 0 1068 -82 70 c-46 38 -103
85 -128 104 -25 19 -46 38 -48 42 -2 5 -8 8 -13 8 -5 0 -31 16 -58 35 -26 19
-51 35 -55 35 -8 0 -157 109 -231 169 -90 73 -139 110 -177 133 -21 13 -38 28
-38 35 0 15 37 5 44 -13 6 -15 109 -65 158 -77 16 -4 43 -1 65 7 24 9 98 17
198 20 88 4 206 9 263 12 l102 7 0 288 c0 338 4 330 -100 221 -73 -78 -80 -80
-230 -92 -58 -4 -145 -13 -195 -20 -98 -13 -336 -5 -369 12 -61 32 -156 58
-216 58 -41 1 -72 6 -84 15 -11 8 -30 15 -43 15 -35 0 -43 34 -55 240 -17 306
-1 531 37 516 7 -2 29 1 49 8 33 12 63 10 185 -8 38 -6 52 -33 50 -103 -1 -46
3 -70 18 -95 29 -49 36 -105 16 -134 -19 -30 -11 -54 20 -54 19 0 31 12 56 61
46 84 87 123 162 148 129 43 247 14 291 -74 28 -53 41 -62 118 -75 79 -13 152
-39 223 -80 29 -16 57 -30 60 -30 4 0 7 716 7 1590 0 1390 -2 1590 -15 1590
-20 0 -85 32 -85 42 0 20 -51 58 -76 58 -15 0 -38 9 -50 21 -29 27 -118 52
-180 50 -35 -1 -57 3 -67 14 -9 8 -20 15 -26 15 -23 0 -9 21 55 83 l66 64 189
-5 189 -4 0 71 0 71 -556 0 -555 0 15 -22 c25 -35 20 -68 -16 -100 -67 -59
-78 -73 -78 -95 0 -13 6 -23 14 -23 7 0 21 -11 30 -25 10 -14 28 -31 42 -37
14 -7 32 -24 40 -39 12 -24 12 -28 -2 -33 -26 -10 -122 -7 -129 5 -11 16 -49
28 -56 16 -4 -5 -14 -7 -23 -4 -14 6 -16 30 -16 182 l0 175 -115 0 -115 0 0
-85 c0 -138 -48 -322 -122 -469 -16 -32 -28 -60 -26 -62 2 -2 42 17 90 41 164
85 372 122 539 94 46 -7 89 -14 94 -14 10 0 25 -15 25 -26 0 -4 -16 -10 -36
-14 -20 -3 -44 -10 -53 -15 -9 -5 -59 -29 -111 -53 -136 -62 -254 -144 -363
-250 -89 -87 -157 -166 -157 -182 0 -13 165 5 248 26 82 21 252 99 282 129 34
34 40 30 15 -10 -16 -25 -34 -52 -41 -60 -19 -24 -54 -89 -54 -101 0 -20 -80
-170 -130 -244 -55 -81 -132 -178 -192 -241 l-40 -41 139 -5 c158 -6 249 -30
363 -98 74 -43 206 -162 233 -209 l18 -30 -70 29 c-39 17 -103 37 -143 47 -92
20 -290 20 -368 0 -80 -22 -161 -53 -161 -62 0 -5 24 -16 53 -25 92 -29 211
-96 278 -157 35 -32 61 -52 56 -45 -12 20 8 14 45 -14 19 -14 40 -29 48 -33
17 -10 7 -61 -12 -61 -9 0 -2 -23 20 -67 43 -89 74 -181 63 -188 -5 -3 -27 21
-49 53 -38 57 -143 162 -162 162 -5 0 -9 -4 -9 -10 0 -5 -6 -10 -13 -10 -17 0
-37 -42 -37 -75 0 -13 -4 -26 -9 -29 -9 -6 -19 52 -23 134 -1 25 -6 51 -11 58
-24 31 -316 4 -377 -35 -28 -19 -38 -12 88 -58 40 -15 100 -45 132 -67 64 -43
143 -128 155 -168 7 -22 2 -20 -35 17 -114 110 -305 141 -443 71 -21 -10 -42
-16 -46 -13 -5 3 -28 39 -51 80 -127 233 -346 485 -538 620 -70 49 -84 68 -60
79 7 3 1 3 -13 0 -19 -4 -39 2 -65 20 -22 14 -79 34 -129 46 -126 29 -122 26
-94 57 l24 26 -28 -18 c-15 -9 -27 -22 -27 -27 0 -7 -16 -8 -42 -4 -183 30
-313 39 -651 45 -368 6 -368 6 -350 26 43 48 43 57 1 17 -46 -44 -46 -44 -144
-52 -305 -26 -549 -105 -754 -243 -162 -110 -307 -247 -450 -427 -95 -119
-207 -295 -279 -438 -17 -34 -35 -62 -40 -62 -5 0 -35 12 -67 27 -83 38 -159
36 -281 -5 -132 -45 -187 -75 -256 -143 -34 -32 -62 -59 -64 -59 -11 0 3 45
34 109 27 56 58 96 113 151 87 87 146 115 277 133 81 10 82 11 65 30 -27 31
-171 140 -238 181 -75 46 -189 90 -272 106 -55 11 -223 10 -258 -1 -7 -2 -13
0 -14 5 -3 13 137 89 232 126 108 42 269 87 366 102 45 7 82 16 82 20 0 29
-288 14 -419 -22 -91 -26 -108 -22 -50 12 219 128 504 161 747 86 35 -11 66
-17 69 -14 8 8 -151 121 -245 174 -230 130 -457 185 -669 161 -54 -5 -120 -17
-147 -25 -102 -29 -99 -12 6 39 92 44 187 77 249 84 30 4 46 10 43 17 -5 12
113 75 189 102 84 30 171 44 268 44 54 0 99 2 99 4 0 3 -25 39 -55 82 -81 112
-142 231 -186 358 -74 213 -112 461 -45 286 62 -159 203 -306 397 -414 96 -53
112 -48 57 17 -136 159 -228 345 -263 532 -20 103 -30 321 -16 329 12 8 15 45
5 70 -6 14 -78 16 -720 16 l-714 0 0 -3600z m6267 3166 c4 -5 3 -6 -4 -2 -8 4
-13 1 -13 -8 0 -9 5 -16 10 -16 6 0 10 -4 10 -10 0 -5 -5 -10 -12 -10 -13 0
-58 39 -58 51 0 10 57 6 67 -5z m43 -76 c0 -5 -4 -10 -10 -10 -5 0 -10 5 -10
10 0 6 5 10 10 10 6 0 10 -4 10 -10z m-205 -1888 c-3 -3 -11 0 -18 7 -9 10 -8
11 6 5 10 -3 15 -9 12 -12z m150 -17 c0 -30 -30 -30 -43 0 -12 25 -11 26 15
23 20 -2 28 -9 28 -23z m-25 -105 c0 -5 -2 -10 -4 -10 -3 0 -8 5 -11 10 -3 6
-1 10 4 10 6 0 11 -4 11 -10z m-245 -235 c11 -2 44 -12 73 -24 30 -12 75 -21
105 -21 29 0 58 -5 65 -12 41 -41 -36 -174 -137 -239 -37 -24 -56 -29 -107
-29 l-63 0 -8 48 c-10 60 -10 228 0 266 7 23 12 27 30 21 12 -3 31 -8 42 -10z
m-2177 -195 c46 -11 143 -42 215 -69 335 -126 514 -157 608 -107 55 30 278
115 374 144 144 43 254 50 241 15 -15 -39 -38 -154 -33 -160 4 -4 20 5 35 19
139 131 240 65 255 -167 l5 -70 -20 45 c-45 106 -98 118 -197 45 -113 -83
-141 -155 -96 -249 15 -32 25 -60 22 -63 -3 -3 -21 0 -41 7 -26 8 -40 8 -56 0
-24 -13 -22 -27 16 -102 35 -70 32 -82 -36 -135 -76 -58 -100 -96 -100 -156 0
-44 12 -68 24 -48 9 14 83 54 151 81 105 41 172 97 212 174 20 40 23 54 14 68
-6 10 -11 24 -11 32 0 30 -60 144 -114 216 -31 41 -56 77 -56 80 0 3 7 13 15
24 21 28 40 14 87 -59 23 -36 45 -65 50 -65 13 0 -3 32 -48 98 -31 44 -40 64
-31 68 26 10 71 -18 133 -81 55 -56 65 -62 73 -47 14 23 14 -36 0 -169 -13
-131 -35 -225 -62 -269 -52 -84 -283 -337 -344 -377 -20 -14 -27 -13 -68 7
-28 13 -57 38 -75 64 l-29 43 15 54 c9 30 42 142 74 249 53 177 79 290 66 290
-2 0 -13 -30 -24 -67 -67 -230 -106 -363 -136 -473 -19 -69 -48 -158 -64 -197
-62 -152 -233 -370 -371 -472 l-68 -51 -251 0 c-137 0 -296 -5 -353 -10 -222
-22 -498 -81 -695 -150 -47 -16 -91 -27 -97 -23 -50 31 -452 334 -489 368 -55
52 -117 142 -168 245 -48 97 -264 603 -280 657 -14 47 -34 50 -95 15 l-36 -22
7 88 c6 87 6 87 -25 127 -78 100 -198 185 -259 185 -32 0 -89 -51 -77 -69 4
-8 13 -4 25 11 17 22 18 21 13 -48 -6 -82 9 -140 38 -149 10 -4 19 -13 19 -21
0 -27 18 -14 25 19 10 42 48 116 75 146 l23 23 36 -36 c25 -25 32 -39 24 -44
-27 -17 -92 -197 -100 -278 -7 -71 -6 -72 90 -207 83 -116 109 -140 179 -162
29 -10 75 -28 102 -41 27 -14 51 -23 53 -20 3 2 2 29 -2 59 -9 73 -35 113 -77
122 -50 11 -106 42 -119 66 -24 45 14 259 46 259 9 0 23 -27 36 -72 12 -40 63
-165 112 -278 49 -113 91 -214 94 -225 3 -13 -5 -29 -24 -46 -44 -42 -104 -79
-127 -79 -75 0 -459 391 -501 510 -42 119 -67 418 -47 560 10 67 15 78 48 109
34 32 39 33 91 28 51 -5 123 -41 145 -72 16 -22 7 11 -11 40 -18 31 -18 31 9
63 14 18 32 32 38 32 7 0 12 4 12 8 0 19 55 32 129 32 71 0 98 -7 357 -95 318
-108 350 -113 437 -68 78 39 399 189 503 234 169 73 285 83 462 39z m-2323
-115 c22 -13 49 -28 60 -34 23 -10 52 -41 39 -41 -15 0 -126 61 -148 81 -29
28 0 24 49 -6z m5630 -109 c19 -28 9 -58 -25 -76 -25 -13 -93 -13 -124 1 l-25
12 21 30 c40 57 126 75 153 33z m-962 -1077 c20 -17 42 -39 47 -50 9 -17 8
-18 -13 -10 -23 9 -49 0 -75 -25 -18 -18 -66 -26 -137 -22 -57 3 -60 4 -68 34
-6 21 -4 41 7 67 l15 37 93 0 c90 0 95 -1 131 -31z m102 -89 c10 -11 14 -20 9
-20 -12 1 -44 25 -44 34 0 12 17 6 35 -14z m-181 -103 c23 -32 23 -19 18 -854
-3 -410 -1 -398 -82 -413 -65 -12 -88 -4 -95 34 -9 51 -11 1157 -2 1208 9 52
18 57 96 54 36 -1 48 -6 65 -29z m-3627 -184 c22 -48 120 -208 153 -251 14
-18 55 -69 93 -112 37 -43 67 -83 67 -88 0 -13 -146 -98 -181 -106 -26 -6 -26
-4 -52 102 -15 59 -43 184 -62 277 -19 94 -37 180 -40 193 -8 33 2 27 22 -15z
m3618 -1123 c3 -6 -1 -7 -9 -4 -18 7 -21 14 -7 14 6 0 13 -4 16 -10z"/>
<path d="M3644 3855 c-19 -30 -31 -105 -16 -105 11 0 16 12 27 68 8 40 24 41
50 2 19 -29 45 -40 45 -20 0 15 -61 80 -76 80 -7 0 -21 -11 -30 -25z"/>
<path d="M3411 3834 c-26 -34 -35 -64 -23 -76 7 -7 17 5 31 37 23 52 34 52 51
0 6 -19 18 -35 26 -35 18 0 18 1 -8 55 -25 52 -47 57 -77 19z"/>
<path d="M3512 3279 c-96 -10 -297 -50 -392 -78 -65 -19 -170 -33 -170 -22 0
3 12 15 28 28 17 14 22 22 12 22 -8 0 -30 -12 -49 -28 l-34 -28 134 -67 c187
-93 289 -119 474 -120 245 -1 422 49 663 188 73 42 137 76 143 76 6 0 9 5 7
12 -6 16 -56 29 -61 15 -2 -8 -68 -7 -233 1 -253 14 -397 14 -522 1z m418 -14
c232 -9 330 -17 324 -26 -2 -5 -34 -25 -70 -45 l-65 -37 -52 17 c-201 65 -613
34 -865 -65 l-73 -29 -59 32 c-33 17 -57 34 -54 37 3 3 27 11 52 18 26 6 88
23 139 36 150 42 465 82 553 71 14 -1 90 -5 170 -9z m135 -111 c13 -5 14 -8 3
-15 -19 -13 -28 -11 -28 6 0 17 2 18 25 9z m-420 -64 c-3 -5 -25 -9 -48 -8
l-42 1 45 7 c25 4 46 8 48 8 2 1 0 -2 -3 -8z m-420 -30 c-3 -5 -19 -3 -36 3
-29 12 -30 12 -7 18 24 6 51 -7 43 -21z m322 14 c-3 -3 -12 -4 -19 -1 -8 3 -5
6 6 6 11 1 17 -2 13 -5z m-127 -50 c0 -2 -16 -4 -36 -4 -19 0 -33 4 -30 8 5 8
66 4 66 -4z m263 -1 c-13 -2 -33 -2 -45 0 -13 2 -3 4 22 4 25 0 35 -2 23 -4z
m-210 -10 c-7 -2 -19 -2 -25 0 -7 3 -2 5 12 5 14 0 19 -2 13 -5z m80 0 c-13
-2 -33 -2 -45 0 -13 2 -3 4 22 4 25 0 35 -2 23 -4z"/>
<path d="M3909 2930 c-110 -44 -208 -54 -563 -60 -6 0 -5 -5 1 -11 17 -17 403
-6 470 14 38 11 54 12 64 3 9 -8 10 -8 5 1 -3 6 5 15 22 21 34 12 83 52 62 51
-8 -1 -36 -9 -61 -19z"/>
<path d="M3755 2843 c-16 -3 -34 -9 -40 -15 -11 -11 42 -3 80 13 21 8 9 9 -40
2z"/>
<path d="M3595 2829 c-10 -15 1 -23 20 -15 9 3 13 10 10 16 -8 13 -22 13 -30
-1z"/>
<path d="M1723 7186 c19 -49 174 -262 184 -252 2 2 -7 42 -21 87 -13 46 -29
104 -33 129 l-9 45 -63 3 c-54 3 -63 1 -58 -12z"/>
<path d="M2545 7190 c3 -5 10 -10 16 -10 5 0 9 5 9 10 0 6 -7 10 -16 10 -8 0
-12 -4 -9 -10z"/>
<path d="M4816 7129 c-15 -40 -24 -74 -22 -77 7 -6 61 40 114 99 l44 49 -55 0
-55 0 -26 -71z"/>
<path d="M5231 7133 c-29 -81 -136 -292 -180 -356 -28 -41 -38 -67 -27 -67 6
0 147 62 271 119 61 28 116 59 124 68 23 30 98 195 114 251 l15 52 -147 0
-146 0 -24 -67z"/>
<path d="M3622 5840 c-7 -11 -8 -20 -3 -20 9 0 24 30 18 36 -1 2 -8 -6 -15
-16z"/>
<path d="M3972 5750 c-13 -21 -6 -26 15 -12 7 4 9 13 5 19 -6 9 -11 6 -20 -7z"/>
<path d="M3147 5723 c-3 -10 -8 -28 -12 -40 -3 -13 -2 -23 3 -23 5 0 12 17 15
37 7 39 2 57 -6 26z"/>
</g>
</svg>
